Patient4_TMGait_0pt5_02_left_31_EMG.mot
version=1
nRows=33
nColumns=33
inDegrees=no
endheader
time	1LAddLong	2LGlutMax	3LGlutMed	4LIliopsoas	5LSemiMemb	6LBicFemLong	7LRecFem	8LVastMed	9LVastLat	10LGasMed	11LTibAnt	12lTibPost	13LPeroneusLong	14LSol	15LExtDigLong	16LFlexDigLong	17RAddLong	18RGlutMax	19RGlutMed	20RIliopsoas	21RSemiMemb	22RBicFemLong	23RRecFem	24RVastMed	25RVastLat	26RGasMed	27RTibAnt	28RTibPost	29RPeroneusLong	30RSol	31RExtDigLong	32RFlexDigLong
40.245	0.007477	1.1865	0.058899	0.026398	0.007782	-0.18967	-0.37262	-0.003357	0.3064	0.027618	0.23956	0.027924	-0.034027	0.30334	0.050507	0.20493	0.05127	-0.66757	-0.2803	0.021667	0.011597	-0.039825	0.48202	-0.011292	0.018921	0.005035	-0.13245	-0.006104	0.033569	-0.16327	-0.004578	-0.006714
40.246	-0.002747	1.2564	0.026855	0.01297	0.026245	-0.2475	-0.45746	-0.025177	0.26169	-0.007935	0.060577	0.019836	-0.003967	0.27939	0.11139	0.018311	0.008087	-0.59128	-0.2861	0.10757	0.01297	-0.082703	0.49362	-0.00351	0.003815	0.003662	0.049744	-0.007019	0.038757	-0.16571	-0.003052	-0.010834
40.247	0.008392	1.2923	0.067902	0.023804	0.041046	-0.15701	-0.56793	-0.024414	0.16495	0.029144	0.03479	0.023346	0.023346	0.17654	-0.20721	-0.27222	0.056458	-0.48279	-0.27176	0.15106	0.013123	-0.09552	0.49225	-0.029449	0.026245	-0.000305	0.11307	-0.004578	0.027771	-0.16861	-0.000305	-0.003357
40.248	-0.021515	1.3649	-0.087891	0.011749	0.009918	-0.054932	-0.49027	0.009003	0.020142	0.056915	0.069122	0.018463	0.007477	0.013733	-0.42206	0.1741	0.05661	-0.33768	-0.29312	0.13123	-0.010986	-0.051117	0.53558	-0.084686	0.010376	0.018005	0.13443	-0.009918	0.20309	-0.22186	-0.003052	0.000153
40.249	0.04837	1.4073	-0.18845	-0.007935	-0.002441	0.025787	-0.45013	0.014038	0.005341	0.08194	0.14328	0.01297	-0.040894	-0.070343	-0.20737	0.26749	0.020752	-0.31601	-0.27847	-0.033112	-0.008698	-0.045471	0.54565	-0.036316	0.003357	0.019684	-0.52155	-0.003662	0.21973	-0.16037	-0.003052	0.002747
40.25	-0.046692	1.2428	-0.16205	-0.013733	-0.002747	0.019379	-0.37949	-0.017548	0.15808	0.076294	0.14587	0.01236	-0.084686	-0.1651	-0.11856	0.45075	-0.011597	-0.18601	-0.31342	-0.1593	-0.011597	-0.057526	0.52582	-0.019073	0.014038	0.010223	-0.89188	-0.008545	0.064545	0.046082	-0.004578	0.005646
40.251	-0.018768	0.96847	-0.1973	-0.015869	-0.000763	0.034332	-0.22354	-0.02655	-0.035553	0.034637	-0.010376	0.016022	-0.086212	-0.15869	-0.1535	0.2269	-0.037231	-0.15076	-0.32333	-0.27023	-0.023651	-0.099182	0.49896	-0.032501	0.015411	0.002899	-0.75684	-0.003815	0.10376	0.15808	-0.005188	0.003357
40.252	0.032349	0.69733	-0.29297	0.002594	-0.017395	0.037537	-0.21088	-0.028534	-0.45456	0.010986	-0.21973	0.019989	0.014191	-0.18646	-0.20233	-0.001984	-0.008087	-0.13077	-0.42206	-0.22644	-0.023651	-0.11749	0.48645	-0.078583	0.012207	-0.001221	-0.46661	-0.006561	0.085449	0.24933	0.003204	0.006866
40.253	0.007172	0.40131	-0.34515	0.007782	-0.011292	0.033875	-0.042877	-0.020294	-0.7605	0.008698	-0.24689	0.004883	0.019836	-0.12161	0.060272	-0.055542	0.017853	0.009918	-0.42175	-0.048065	-0.041046	-0.18158	0.46432	-0.11505	-0.009613	-0.004425	-0.12039	-0.00412	-0.030823	0.30304	-0.006561	-0.001678
40.254	0.003357	0.16815	-0.46188	-0.001068	0.001678	0.037994	0.028381	-0.028839	-0.63858	0.016632	-0.1947	0.006409	-0.014343	-0.055847	0.8551	-0.054474	0.08255	0.004425	-0.35172	0.27664	-0.055237	-0.20767	0.46829	-0.11017	-0.018158	-0.009766	-0.1294	-0.003662	-0.034332	0.35156	-0.002899	-0.006104
40.255	0.003815	0.027466	-0.42297	-0.004578	0.005798	0.074158	-0.016022	-0.010376	-0.32852	-0.006256	-0.17212	0.005951	0.042419	0.018005	0.2739	-0.080872	0.066681	-0.007782	-0.41611	0.25696	-0.041199	-0.20111	0.47409	-0.14725	-0.007477	-0.009766	0.22247	-0.00946	-0.07431	0.23834	-0.00473	-0.010986
40.256	0.006256	-0.026398	-0.40085	-0.008698	-0.007019	0.065765	-0.026093	-0.015106	-0.14389	-0.000305	-0.22858	0.009308	0.046539	0.15091	0.45929	-0.064697	0.07843	0.032959	-0.4512	0.10162	-0.065765	-0.19501	0.46661	-0.077515	-0.014954	-0.013123	0.9259	-0.003357	-0.13321	0.063171	-0.009613	-0.015106
40.257	0.013885	-0.039825	-0.354	0.006866	-0.062714	0.087585	-0.089264	-0.005493	-0.02182	0.007782	0.016479	0.008087	-0.0177	0.19272	0.43854	-0.14313	0.098419	0.030823	-0.38666	0.13825	-0.069885	-0.14679	0.52597	-0.048523	-0.040283	-0.012207	1.562	-0.00351	-0.26871	0.018463	-0.007935	-0.012207
40.258	0.012054	-0.14358	-0.11444	0.019989	-0.10071	0.054626	-0.072174	-0.010376	-0.040741	-0.018463	0.13702	-0.004425	0.022888	0.012512	1.2823	0.029907	0.061493	0.055695	-0.34256	0.14206	-0.003815	-0.063477	0.50613	0.031433	-0.010529	-0.001831	1.4314	-0.003357	-0.1001	-0.12878	-0.009003	-0.00473
40.259	0.012665	-0.17166	0.32013	-0.002899	-0.1059	0.082092	-0.000153	-0.007782	0.045929	-0.010681	0.27939	-0.001678	0.031891	-0.1294	0.70145	-0.092163	0.070343	0.13534	-0.40359	0.15106	0.020447	0.04303	0.46249	0.06073	0.005798	0.014191	0.52475	-0.002289	0.2832	-0.21729	-0.006714	-0.009003
40.26	0.009155	-0.16876	0.26779	0.003204	-0.045471	0.082397	0.034943	-0.003662	0.011139	-0.027924	0.37399	-0.007782	0.020752	-0.10422	-0.80368	-0.58197	0.043182	0.20187	-0.43991	0.15533	0.0383	0.094147	0.48157	0.060425	0.013275	0.011597	-0.57861	-0.001526	0.43793	-0.23117	-0.000763	-0.00412
40.261	-0.009003	-0.12497	0.20142	0.006714	0.019379	0.052643	0.087433	-0.003052	-0.076599	-0.014343	0.17868	-0.007935	0.025787	-0.071106	-1.044	0.45242	0.027313	0.22964	-0.33783	0.070953	0.050049	0.14618	0.46631	0.039215	-0.017548	0.003204	-1.463	-0.007172	0.40176	-0.17151	-0.013123	-0.011292
40.262	-0.016937	-0.059052	0.12283	0.008392	0.020294	-0.019836	0.09491	0.023041	-0.070343	-0.018921	-0.058289	-0.007019	0.042725	-0.10788	-1.293	0.34347	-0.017242	0.21637	-0.34744	0.021515	0.064545	0.18616	0.45425	0.072937	-0.013275	-0.006104	-1.5373	-0.010376	0.20538	-0.091553	-0.006714	0.001984
40.263	-0.015564	-0.06073	0.14572	0.01709	0.006104	0.041809	-0.055084	0.041504	-0.017242	0.007172	-0.14191	-0.011749	0.027008	-0.16052	-1.1397	-0.5542	0.01236	0.20538	-0.4393	-0.032959	0.12299	0.20447	0.48386	0.081787	0.003662	0.005188	-1.0896	0.000153	0.23132	-0.2504	-0.003357	0
40.264	-0.015717	-0.058441	0.081787	-0.001221	-0.016785	0.018005	-0.16251	0.015106	0.011444	0.027924	-0.13458	-0.007477	-0.018005	-0.10468	-0.81787	-0.26566	-0.014038	0.18234	-0.55069	-0.040436	0.12817	0.11963	0.47714	0.054626	-0.003815	0.013123	-0.63309	-0.003052	0.20355	-0.28336	-0.00473	0.001831
40.265	-0.024261	-0.071106	0.14771	0.007629	-0.003357	-0.018311	-0.12268	-0.026093	0.077667	0.012817	-0.098114	-0.016785	-0.029602	-0.21988	-0.42969	0.73852	-0.034332	0.26184	-0.5188	-0.06073	0.0737	0.093384	0.42664	0.066376	-0.015717	0.007629	0.86136	-0.001831	-0.04837	-0.20981	-0.003662	0.002441
40.266	-0.032043	-0.085907	0.081787	0.015259	0.023651	0.088959	-0.10529	-0.026245	0.24139	0.028381	-0.12543	-0.017242	-0.067139	-0.25101	0.215	-0.10651	-0.054321	0.21057	-0.41397	-0.047913	0.050659	0.056915	0.43991	0.081482	0.007629	0.01709	1.062	-0.003052	-0.10925	-0.20691	-0.005798	0.007935
40.267	-0.029755	0.013275	0.016632	0.003357	0.025482	0.16556	-0.05249	-0.010071	0.31723	0.055084	-0.078278	-0.018158	-0.085907	-0.1947	0.38422	-0.23941	-0.083313	0.21896	-0.24612	0.005341	0.039825	0.063934	0.41779	0.11002	-0.007629	0.020447	1.0606	-0.001526	0.011749	-0.15976	-0.008392	0.014954
40.268	-0.021515	0.030212	-0.0354	-0.001221	0.002899	0.15198	0.074615	-0.001221	0.20783	0.050201	0.21545	-0.015259	-0.10925	-0.1004	0.18005	-0.046997	-0.10498	0.29007	-0.32257	0.05127	0.012665	0.034332	0.34271	0.14587	0.013428	0.016785	0.37903	-0.00351	0.063171	-0.023193	-0.007935	0.008698
40.269	-0.004425	0.066986	-0.000305	0.004272	0.000305	0.14358	0.08728	0.009918	0.17777	0.031281	0.41596	-0.016327	-0.058594	-0.004272	0.27512	0.060577	-0.059967	0.26352	-0.43472	0.12436	-0.021362	-0.001068	0.31311	0.10773	0.009003	0.005646	-0.68588	-0.005493	-0.027161	0.13657	-0.005188	0.003815
40.27	0.002747	-0.000763	-0.060577	-0.003357	-0.063324	0.13947	0.066376	0.006866	0.10376	0.035858	0.47119	-0.018463	-0.044556	0.066071	0.13275	0.13031	0.013733	0.23972	-0.35843	0.11505	-0.02121	0.007782	0.31097	0.10346	-0.002441	-0.009613	-1.2778	-0.009155	0.047302	0.31937	-0.005341	-0.005341
40.271	0.00061	-0.045929	-0.112	0.001678	-0.10468	0.11902	-0.017548	0.000458	0.044556	-0.021515	0.37155	-0.020905	0.005798	0.23315	0.29404	-0.015564	0.012207	0.30426	-0.32989	0.13168	-0.018311	0.062866	0.3067	0.11246	-0.01358	-0.009308	-1.1694	-0.009308	0.042725	0.4364	-0.004578	-0.002747
40.272	-0.002136	-0.070038	-0.1326	-0.008545	-0.11719	0.065918	-0.065002	0.007782	0.078735	-0.047607	-0.014191	-0.015717	0.087585	0.29617	0.37689	0.25604	0.058136	0.38391	-0.16098	0.021973	0.000916	0.071106	0.31021	0.13611	0.000153	-0.001068	-0.77637	-0.01358	-0.045166	0.46188	-0.006256	0.006714
40.273	-0.00412	-0.11307	-0.19882	-0.007935	-0.089417	0.001373	-0.030823	0.022278	0.10712	-0.043488	-0.29312	-0.020752	0.11612	0.36697	0.22858	-0.72464	0.074158	0.41168	-0.054169	-0.13062	-0.004425	0.023193	0.30655	0.12482	-0.002136	0.00946	-0.13397	-0.008698	-0.1651	0.45807	-0.00824	-0.002899
40.274	0.001831	-0.20126	-0.18265	-0.002441	-0.033569	-0.13626	0.076752	0.021973	0.10651	-0.005951	-0.37933	-0.018768	0.090332	0.48645	0.16098	0.94238	0.03891	0.50934	-0.11047	-0.28534	0.009613	0.023041	0.27542	0.095062	-0.015259	0.006561	0.11841	-0.008545	-0.10208	0.2095	-0.003967	-0.008087
40.275	-0.001373	-0.31128	-0.112	0.000916	-0.071716	-0.15243	0.13657	0.026093	0.075073	-0.02243	-0.089569	-0.024719	0.05661	0.42191	0.073395	-1.2735	-0.006104	0.48233	-0.14694	-0.41794	0.031128	0.053558	0.28839	0.063019	-0.007324	0.011749	0.37293	-0.010529	0.006104	0.028381	-0.005341	0.00351
40.276	0.012817	-0.27908	0.038147	0.00824	-0.053711	-0.16571	0.10956	0.0354	0.033112	-0.037994	-0.17838	-0.016022	0.13001	0.42664	-0.08606	0.38498	-0.028839	0.58853	-0.15961	-0.44235	0.033112	0.034027	0.27603	0.019684	-0.015259	0.01297	0.93246	-0.005188	-0.02182	-0.03006	-0.004883	-0.000458
40.277	0.016479	-0.19333	0.17212	-0.010834	0.053101	-0.17716	0.10407	0.050201	-0.010223	-0.007019	-0.22675	-0.015564	0.13794	0.32135	-0.41184	0.95612	0.050201	0.66345	-0.12955	-0.42007	0.027313	0.046539	0.26855	0.006256	-0.03418	0.001984	0.68466	-0.00946	-0.17502	-0.006256	-0.005951	0.001526
